<mxfile host="app.diagrams.net" agent="Mozilla/5.0 (Windows NT 10.0; Win64; x64) AppleWebKit/537.36 (KHTML, like Gecko) Chrome/98.0.4758.102 Safari/537.36" version="24.7.17">
  <diagram id="C5RBs43oDa-KdzZeNtuy" name="Page-1">
    <mxGraphModel dx="989" dy="552" grid="1" gridSize="10" guides="1" tooltips="1" connect="1" arrows="1" fold="1" page="1" pageScale="1" pageWidth="827" pageHeight="1169" math="0" shadow="0">
      <root>
        <mxCell id="WIyWlLk6GJQsqaUBKTNV-0" />
        <mxCell id="WIyWlLk6GJQsqaUBKTNV-1" parent="WIyWlLk6GJQsqaUBKTNV-0" />
        <mxCell id="WIyWlLk6GJQsqaUBKTNV-3" value="Main" style="rounded=1;whiteSpace=wrap;html=1;fontSize=12;glass=0;strokeWidth=1;shadow=0;" parent="WIyWlLk6GJQsqaUBKTNV-1" vertex="1">
          <mxGeometry x="100" width="120" height="40" as="geometry" />
        </mxCell>
        <mxCell id="JKsnpOB6v6STWGNJbgHz-11" value="" style="endArrow=classic;html=1;rounded=0;entryX=0.5;entryY=0;entryDx=0;entryDy=0;" edge="1" parent="WIyWlLk6GJQsqaUBKTNV-1" target="JKsnpOB6v6STWGNJbgHz-13">
          <mxGeometry width="50" height="50" relative="1" as="geometry">
            <mxPoint x="159.93" y="40" as="sourcePoint" />
            <mxPoint x="159.93" y="90" as="targetPoint" />
          </mxGeometry>
        </mxCell>
        <mxCell id="JKsnpOB6v6STWGNJbgHz-13" value="Init" style="rounded=1;whiteSpace=wrap;html=1;" vertex="1" parent="WIyWlLk6GJQsqaUBKTNV-1">
          <mxGeometry x="100" y="70" width="120" height="40" as="geometry" />
        </mxCell>
        <mxCell id="JKsnpOB6v6STWGNJbgHz-14" value="" style="endArrow=classic;html=1;rounded=0;entryX=0.5;entryY=0;entryDx=0;entryDy=0;" edge="1" parent="WIyWlLk6GJQsqaUBKTNV-1" target="JKsnpOB6v6STWGNJbgHz-15">
          <mxGeometry width="50" height="50" relative="1" as="geometry">
            <mxPoint x="159.8" y="110" as="sourcePoint" />
            <mxPoint x="159.8" y="160" as="targetPoint" />
          </mxGeometry>
        </mxCell>
        <mxCell id="JKsnpOB6v6STWGNJbgHz-51" value="" style="edgeStyle=orthogonalEdgeStyle;rounded=0;orthogonalLoop=1;jettySize=auto;html=1;" edge="1" parent="WIyWlLk6GJQsqaUBKTNV-1" source="JKsnpOB6v6STWGNJbgHz-15" target="JKsnpOB6v6STWGNJbgHz-17">
          <mxGeometry relative="1" as="geometry" />
        </mxCell>
        <mxCell id="JKsnpOB6v6STWGNJbgHz-15" value="Configuração das portas" style="rounded=1;whiteSpace=wrap;html=1;" vertex="1" parent="WIyWlLk6GJQsqaUBKTNV-1">
          <mxGeometry x="100" y="140" width="120" height="40" as="geometry" />
        </mxCell>
        <mxCell id="JKsnpOB6v6STWGNJbgHz-52" value="" style="edgeStyle=orthogonalEdgeStyle;rounded=0;orthogonalLoop=1;jettySize=auto;html=1;" edge="1" parent="WIyWlLk6GJQsqaUBKTNV-1" source="JKsnpOB6v6STWGNJbgHz-17" target="JKsnpOB6v6STWGNJbgHz-39">
          <mxGeometry relative="1" as="geometry" />
        </mxCell>
        <mxCell id="JKsnpOB6v6STWGNJbgHz-17" value="Configuração do timer 1" style="rounded=1;whiteSpace=wrap;html=1;" vertex="1" parent="WIyWlLk6GJQsqaUBKTNV-1">
          <mxGeometry x="100" y="210" width="120" height="40" as="geometry" />
        </mxCell>
        <mxCell id="JKsnpOB6v6STWGNJbgHz-56" value="" style="edgeStyle=orthogonalEdgeStyle;rounded=0;orthogonalLoop=1;jettySize=auto;html=1;" edge="1" parent="WIyWlLk6GJQsqaUBKTNV-1" source="JKsnpOB6v6STWGNJbgHz-21" target="JKsnpOB6v6STWGNJbgHz-22">
          <mxGeometry relative="1" as="geometry" />
        </mxCell>
        <mxCell id="JKsnpOB6v6STWGNJbgHz-21" value="ISR(TIMER1_&lt;div&gt;COMPA_vect)&lt;/div&gt;" style="rounded=0;whiteSpace=wrap;html=1;" vertex="1" parent="WIyWlLk6GJQsqaUBKTNV-1">
          <mxGeometry x="330" width="120" height="40" as="geometry" />
        </mxCell>
        <mxCell id="JKsnpOB6v6STWGNJbgHz-57" value="" style="edgeStyle=orthogonalEdgeStyle;rounded=0;orthogonalLoop=1;jettySize=auto;html=1;" edge="1" parent="WIyWlLk6GJQsqaUBKTNV-1" source="JKsnpOB6v6STWGNJbgHz-22" target="JKsnpOB6v6STWGNJbgHz-27">
          <mxGeometry relative="1" as="geometry" />
        </mxCell>
        <mxCell id="JKsnpOB6v6STWGNJbgHz-61" value="" style="edgeStyle=orthogonalEdgeStyle;rounded=0;orthogonalLoop=1;jettySize=auto;html=1;" edge="1" parent="WIyWlLk6GJQsqaUBKTNV-1" source="JKsnpOB6v6STWGNJbgHz-22" target="JKsnpOB6v6STWGNJbgHz-32">
          <mxGeometry relative="1" as="geometry" />
        </mxCell>
        <mxCell id="JKsnpOB6v6STWGNJbgHz-22" value="Como está o&amp;nbsp;&lt;div&gt;led?&lt;/div&gt;" style="rhombus;whiteSpace=wrap;html=1;" vertex="1" parent="WIyWlLk6GJQsqaUBKTNV-1">
          <mxGeometry x="330" y="70" width="120" height="80" as="geometry" />
        </mxCell>
        <mxCell id="JKsnpOB6v6STWGNJbgHz-25" value="High" style="text;html=1;align=center;verticalAlign=middle;whiteSpace=wrap;rounded=0;" vertex="1" parent="WIyWlLk6GJQsqaUBKTNV-1">
          <mxGeometry x="450" y="90" width="50" height="20" as="geometry" />
        </mxCell>
        <mxCell id="JKsnpOB6v6STWGNJbgHz-27" value="Low" style="shape=process;whiteSpace=wrap;html=1;backgroundOutline=1;" vertex="1" parent="WIyWlLk6GJQsqaUBKTNV-1">
          <mxGeometry x="500" y="80" width="120" height="60" as="geometry" />
        </mxCell>
        <mxCell id="JKsnpOB6v6STWGNJbgHz-32" value="High" style="shape=process;whiteSpace=wrap;html=1;backgroundOutline=1;" vertex="1" parent="WIyWlLk6GJQsqaUBKTNV-1">
          <mxGeometry x="330" y="200" width="120" height="60" as="geometry" />
        </mxCell>
        <mxCell id="JKsnpOB6v6STWGNJbgHz-33" value="Low" style="text;html=1;align=center;verticalAlign=middle;whiteSpace=wrap;rounded=0;" vertex="1" parent="WIyWlLk6GJQsqaUBKTNV-1">
          <mxGeometry x="400" y="160" width="50" height="20" as="geometry" />
        </mxCell>
        <mxCell id="JKsnpOB6v6STWGNJbgHz-36" value="Espera 0.5s" style="text;html=1;align=center;verticalAlign=middle;whiteSpace=wrap;rounded=0;" vertex="1" parent="WIyWlLk6GJQsqaUBKTNV-1">
          <mxGeometry x="490" y="20" width="70" height="30" as="geometry" />
        </mxCell>
        <mxCell id="JKsnpOB6v6STWGNJbgHz-37" value="Espera 0.5s" style="text;html=1;align=center;verticalAlign=middle;whiteSpace=wrap;rounded=0;" vertex="1" parent="WIyWlLk6GJQsqaUBKTNV-1">
          <mxGeometry x="260" y="80" width="70" height="30" as="geometry" />
        </mxCell>
        <mxCell id="JKsnpOB6v6STWGNJbgHz-53" value="" style="edgeStyle=orthogonalEdgeStyle;rounded=0;orthogonalLoop=1;jettySize=auto;html=1;" edge="1" parent="WIyWlLk6GJQsqaUBKTNV-1" source="JKsnpOB6v6STWGNJbgHz-39" target="JKsnpOB6v6STWGNJbgHz-43">
          <mxGeometry relative="1" as="geometry" />
        </mxCell>
        <mxCell id="JKsnpOB6v6STWGNJbgHz-39" value="Configuração do timer 0 para sinal PWM" style="rounded=1;whiteSpace=wrap;html=1;" vertex="1" parent="WIyWlLk6GJQsqaUBKTNV-1">
          <mxGeometry x="100" y="270" width="120" height="40" as="geometry" />
        </mxCell>
        <mxCell id="JKsnpOB6v6STWGNJbgHz-55" value="" style="edgeStyle=orthogonalEdgeStyle;rounded=0;orthogonalLoop=1;jettySize=auto;html=1;" edge="1" parent="WIyWlLk6GJQsqaUBKTNV-1" source="JKsnpOB6v6STWGNJbgHz-43" target="JKsnpOB6v6STWGNJbgHz-54">
          <mxGeometry relative="1" as="geometry" />
        </mxCell>
        <mxCell id="JKsnpOB6v6STWGNJbgHz-43" value="Configuração do ADC" style="rounded=1;whiteSpace=wrap;html=1;" vertex="1" parent="WIyWlLk6GJQsqaUBKTNV-1">
          <mxGeometry x="100" y="340" width="120" height="40" as="geometry" />
        </mxCell>
        <mxCell id="JKsnpOB6v6STWGNJbgHz-54" value="Início da conversão" style="rounded=1;whiteSpace=wrap;html=1;" vertex="1" parent="WIyWlLk6GJQsqaUBKTNV-1">
          <mxGeometry x="100" y="405" width="120" height="40" as="geometry" />
        </mxCell>
        <mxCell id="JKsnpOB6v6STWGNJbgHz-59" value="" style="endArrow=none;html=1;rounded=0;" edge="1" parent="WIyWlLk6GJQsqaUBKTNV-1">
          <mxGeometry width="50" height="50" relative="1" as="geometry">
            <mxPoint x="560" y="80" as="sourcePoint" />
            <mxPoint x="560" y="20" as="targetPoint" />
          </mxGeometry>
        </mxCell>
        <mxCell id="JKsnpOB6v6STWGNJbgHz-60" value="" style="endArrow=classic;html=1;rounded=0;entryX=1;entryY=0.5;entryDx=0;entryDy=0;" edge="1" parent="WIyWlLk6GJQsqaUBKTNV-1" target="JKsnpOB6v6STWGNJbgHz-21">
          <mxGeometry width="50" height="50" relative="1" as="geometry">
            <mxPoint x="560" y="20" as="sourcePoint" />
            <mxPoint x="610" y="-30" as="targetPoint" />
          </mxGeometry>
        </mxCell>
        <mxCell id="JKsnpOB6v6STWGNJbgHz-62" value="" style="endArrow=none;html=1;rounded=0;" edge="1" parent="WIyWlLk6GJQsqaUBKTNV-1">
          <mxGeometry width="50" height="50" relative="1" as="geometry">
            <mxPoint x="280" y="230" as="sourcePoint" />
            <mxPoint x="330" y="230" as="targetPoint" />
          </mxGeometry>
        </mxCell>
        <mxCell id="JKsnpOB6v6STWGNJbgHz-63" value="" style="endArrow=none;html=1;rounded=0;" edge="1" parent="WIyWlLk6GJQsqaUBKTNV-1">
          <mxGeometry width="50" height="50" relative="1" as="geometry">
            <mxPoint x="280" y="230" as="sourcePoint" />
            <mxPoint x="280" y="110" as="targetPoint" />
          </mxGeometry>
        </mxCell>
        <mxCell id="JKsnpOB6v6STWGNJbgHz-64" value="" style="endArrow=classic;html=1;rounded=0;" edge="1" parent="WIyWlLk6GJQsqaUBKTNV-1">
          <mxGeometry width="50" height="50" relative="1" as="geometry">
            <mxPoint x="280" y="110" as="sourcePoint" />
            <mxPoint x="330" y="110" as="targetPoint" />
          </mxGeometry>
        </mxCell>
        <mxCell id="JKsnpOB6v6STWGNJbgHz-81" value="" style="edgeStyle=orthogonalEdgeStyle;rounded=0;orthogonalLoop=1;jettySize=auto;html=1;" edge="1" parent="WIyWlLk6GJQsqaUBKTNV-1" source="JKsnpOB6v6STWGNJbgHz-79" target="JKsnpOB6v6STWGNJbgHz-80">
          <mxGeometry relative="1" as="geometry" />
        </mxCell>
        <mxCell id="JKsnpOB6v6STWGNJbgHz-79" value="ISR(ADC&lt;span style=&quot;background-color: initial;&quot;&gt;_vect)&lt;/span&gt;" style="rounded=0;whiteSpace=wrap;html=1;" vertex="1" parent="WIyWlLk6GJQsqaUBKTNV-1">
          <mxGeometry x="354" y="320" width="120" height="40" as="geometry" />
        </mxCell>
        <mxCell id="JKsnpOB6v6STWGNJbgHz-83" value="" style="edgeStyle=orthogonalEdgeStyle;rounded=0;orthogonalLoop=1;jettySize=auto;html=1;" edge="1" parent="WIyWlLk6GJQsqaUBKTNV-1" source="JKsnpOB6v6STWGNJbgHz-80" target="JKsnpOB6v6STWGNJbgHz-82">
          <mxGeometry relative="1" as="geometry" />
        </mxCell>
        <mxCell id="JKsnpOB6v6STWGNJbgHz-80" value="adc = ADCH" style="rounded=1;whiteSpace=wrap;html=1;" vertex="1" parent="WIyWlLk6GJQsqaUBKTNV-1">
          <mxGeometry x="354" y="405" width="120" height="40" as="geometry" />
        </mxCell>
        <mxCell id="JKsnpOB6v6STWGNJbgHz-85" value="" style="edgeStyle=orthogonalEdgeStyle;rounded=0;orthogonalLoop=1;jettySize=auto;html=1;" edge="1" parent="WIyWlLk6GJQsqaUBKTNV-1" source="JKsnpOB6v6STWGNJbgHz-82" target="JKsnpOB6v6STWGNJbgHz-84">
          <mxGeometry relative="1" as="geometry" />
        </mxCell>
        <mxCell id="JKsnpOB6v6STWGNJbgHz-82" value="OCR0A = adc" style="rounded=1;whiteSpace=wrap;html=1;" vertex="1" parent="WIyWlLk6GJQsqaUBKTNV-1">
          <mxGeometry x="354" y="480" width="120" height="40" as="geometry" />
        </mxCell>
        <mxCell id="JKsnpOB6v6STWGNJbgHz-84" value="Início da conversão" style="rounded=1;whiteSpace=wrap;html=1;" vertex="1" parent="WIyWlLk6GJQsqaUBKTNV-1">
          <mxGeometry x="354" y="560" width="120" height="40" as="geometry" />
        </mxCell>
        <mxCell id="JKsnpOB6v6STWGNJbgHz-86" value="" style="endArrow=none;html=1;rounded=0;" edge="1" parent="WIyWlLk6GJQsqaUBKTNV-1">
          <mxGeometry width="50" height="50" relative="1" as="geometry">
            <mxPoint x="474" y="579.66" as="sourcePoint" />
            <mxPoint x="560" y="580" as="targetPoint" />
          </mxGeometry>
        </mxCell>
        <mxCell id="JKsnpOB6v6STWGNJbgHz-87" value="" style="endArrow=none;html=1;rounded=0;" edge="1" parent="WIyWlLk6GJQsqaUBKTNV-1">
          <mxGeometry width="50" height="50" relative="1" as="geometry">
            <mxPoint x="559.72" y="580" as="sourcePoint" />
            <mxPoint x="559.72" y="380" as="targetPoint" />
          </mxGeometry>
        </mxCell>
        <mxCell id="JKsnpOB6v6STWGNJbgHz-88" value="" style="endArrow=classic;html=1;rounded=0;" edge="1" parent="WIyWlLk6GJQsqaUBKTNV-1">
          <mxGeometry width="50" height="50" relative="1" as="geometry">
            <mxPoint x="560" y="380" as="sourcePoint" />
            <mxPoint x="414" y="380" as="targetPoint" />
          </mxGeometry>
        </mxCell>
      </root>
    </mxGraphModel>
  </diagram>
</mxfile>
